<?xml version="1.0" encoding="UTF-8"?>
<svg xmlns:rdf="http://www.w3.org/1999/02/22-rdf-syntax-ns#" xmlns:svg="http://www.w3.org/2000/svg" xmlns="http://www.w3.org/2000/svg" version="1.1" height="108" width="198"><path fill="#6c04e3" d="m 28.5,24 c -2.48528,0 -4.5,2.0148 -4.5,4.5 l 0,30.5 9,-5.82422 0,-19.17578 c 0,-0.55228 0.44772,-1 1,-1 l 5,0 0,-9 z" /><path fill="#2e2e2e" d="m 94.5,24 c -2.48528,0 -4.5,2.0148 -4.5,4.5 l 0,51 c 0,2.4852 2.01472,4.5 4.5,4.5 2.48528,0 4.5,-2.0148 4.5,-4.5 l 0,-51 c 0,-2.4852 -2.01472,-4.5 -4.5,-4.5 z m 33,0 a 4.5,4.5 0 0 0 -4.5,4.5 l 0,51 a 4.5,4.5 0 0 0 4.5,4.5 4.5,4.5 0 0 0 4.5,-4.5 l 0,-41.757813 12.69141,20.15625 0.002,-0.002 a 4.5,4.5 0 0 0 3.80664,2.103516 4.5,4.5 0 0 0 3.80469,-2.105469 l 0.004,0.0039 12.69126,-20.156197 0,41.757813 a 4.5,4.5 0 0 0 4.5,4.5 4.5,4.5 0 0 0 4.5,-4.5 l 0,-51 a 4.5,4.5 0 0 0 -4.5,-4.5 l -4,0 a 4.5,4.5 0 0 0 -3.80664,2.103515 l -0.002,-0.002 -13.19136,20.951219 -13.19141,-20.951172 -0.002,0.002 a 4.5,4.5 0 0 0 -3.80659,-2.103562 l -4,0 z m -85.5,0.0039 0,8.996094 6,0 c 4.97057,0 9,4.0293 9,9 0,4.9707 -4.02943,9 -9,9 l -1.445312,0 -0.05469,0 c -2.48528,0 -4.5,2.01472 -4.5,4.5 5e-4,0.84346 0.238047,1.669796 0.685547,2.384765 l -0.002,0.002 15,24 0.002,0 c 0.821982,1.31526 2.263405,2.114694 3.814455,2.115194 2.48528,1e-4 4.5,-2.0148 4.5,-4.5 -8.7e-4,-0.8428 -0.238407,-1.668513 -0.685547,-2.382812 l 0.002,0 -0.0293,-0.04688 -11.320356,-18.113277 c 7.071509,-2.48282 12.027053,-9.192258 12.033203,-16.955078 0,-9.941099 -8.058871,-18 -18,-18 l -6,0 z" /><path fill="#a102e2" d="m 33,56.17388 -9,5.82422 0,9 9,-5.8242 0,-9 z" /><path fill="#d400e1" d="m 33,68.173881 -9,5.824219 0,5.5 c 0,2.485282 2.01472,4.5 4.5,4.5 2.48528,0 4.5,-2.014718 4.5,-4.5 l 0,-11.322266 z" /></svg>
