<?xml version="1.0" encoding="UTF-8" standalone="no"?>
<svg xmlns:cc="http://creativecommons.org/ns#" xmlns:rdf="http://www.w3.org/1999/02/22-rdf-syntax-ns#" xmlns:svg="http://www.w3.org/2000/svg" xmlns="http://www.w3.org/2000/svg" version="1.1" height="126" width="234"><g transform="translate(-76.999994,-925.36429)"><g transform="matrix(1.2,0,0,1.2,-20.799996,-204.87286)"><path fill="#7805fb" d="m 108.49998,964.3643 c -2.48528,0 -4.5,2.0148 -4.5,4.5 l 0,30.5 9,-6 0,-19 c 0,-0.55228 0.44772,-1 1,-1 l 5.00002,0 -6,-9 z" /><path fill="#2e2e2e" d="m 44,32.001953 6,9 6,0 c 4.97057,0 9,4.0293 9,9 0,4.9707 -4.02944,9.00721 -9,9 L 54.554688,59 54.5,59.001953 c -2.48345,0.0953 -4.5,2.01472 -4.5,4.5 5e-4,0.84346 0.238047,1.667843 0.685547,2.382813 l -0.002,0.002 15,24 0.002,0 c 0.82198,1.3152 2.263403,2.114634 3.814453,2.115234 2.48528,1e-4 4.5,-2.0147 4.5,-4.5 -8.7e-4,-0.8428 -0.238407,-1.668612 -0.685547,-2.382812 l 0.002,0 -0.0293,-0.04687 L 61.966797,66.958984 C 69.038307,64.476174 73.99385,57.764773 74,50.001953 c 0,-9.9411 -8.05887,-18 -18,-18 l -12,0 z m 58.5,0 c -2.48528,0 -4.5,2.0148 -4.5,4.5 l 0,51 c 0,2.4852 2.01472,4.5 4.5,4.5 2.48528,0 4.5,-2.0148 4.5,-4.5 l 0,-51 c 0,-2.4852 -2.01472,-4.5 -4.5,-4.5 z m 33,0 c -2.48528,0 -4.5,2.0148 -4.5,4.5 l 0,51 c 0,2.4852 2.01472,4.5 4.5,4.5 2.48528,0 4.5,-2.0148 4.5,-4.5 l 0,-42.880859 16.5,10.3125 16.5,-10.3125 0,42.880859 c 0,2.4852 2.01472,4.5 4.5,4.5 2.48528,0 4.5,-2.0148 4.5,-4.5 l 0,-51 c 0,-2.4852 -2.01472,-4.5 -4.5,-4.5 -0.87635,0 -1.68728,0.26004 -2.37891,0.693359 l -0.006,-0.0078 L 156.5,44.322266 138.01562,32.769531 l -0.13085,-0.08203 -0.006,0.0078 c -0.69149,-0.43331 -1.50256,-0.693359 -2.37891,-0.693359 z" transform="translate(71.99998,932.3622)" /><path fill="#a702ee" d="m 112.99998,996.3643 -9,6 0,9 9,-6 z" /><path fill="#d700e4" d="m 112.99998,1008.3643 -9,6 0,5.5 c 0,2.4853 2.01472,4.5 4.5,4.5 2.48528,0 4.5,-2.0147 4.5,-4.5 z" /></g></g></svg>
